<svg xmlns="http://www.w3.org/2000/svg" viewBox="0 0 1590 1454" role="img" aria-label="Royal Estates Premium"><path fill="currentColor" fill-rule="evenodd" d="M958.5 1422.0C952.1 1421.6 943.5 1420.2 938.0 1418.8C932.4 1417.3 923.9 1416.0 917.5 1415.6C904.8 1414.8 899.4 1413.7 892.8 1411.0C890.2 1409.9 883.8 1408.1 878.6 1407.1C873.3 1406.0 867.2 1404.1 864.8 1402.6C862.4 1401.3 858.3 1399.6 855.5 1399.0C852.8 1398.4 849.2 1396.9 847.5 1395.6C845.9 1394.4 842.3 1392.6 839.7 1391.6C837.1 1390.6 833.6 1388.7 832.1 1387.4C830.5 1386.1 827.2 1384.1 824.6 1383.0C822.0 1381.9 818.8 1379.7 817.4 1378.1C816.0 1376.4 813.9 1374.8 812.7 1374.4C810.0 1373.5 787.6 1352.7 784.4 1348.1C783.2 1346.2 781.0 1344.0 779.7 1343.1C776.1 1340.7 757.5 1316.1 752.9 1307.6C751.8 1305.5 749.5 1301.9 747.9 1299.7C746.3 1297.5 745.0 1295.2 745.0 1294.5C745.0 1293.8 743.6 1291.4 741.9 1289.0C740.2 1286.7 738.2 1282.9 737.4 1280.6C736.6 1278.4 734.8 1274.8 733.4 1272.6C732.0 1270.5 730.0 1266.3 728.9 1263.3C727.9 1260.4 726.2 1256.8 725.1 1255.4C724.0 1254.0 722.1 1250.3 721.0 1247.2C719.8 1244.1 717.8 1239.6 716.4 1237.3C715.1 1235.0 713.3 1230.1 712.4 1226.4C711.6 1222.7 710.0 1218.4 708.9 1216.8C707.8 1215.3 706.0 1210.8 704.9 1206.8C703.8 1202.8 702.0 1198.2 701.0 1196.5C700.0 1194.9 698.4 1190.6 697.5 1187.0C696.6 1183.4 694.5 1177.7 692.9 1174.3C691.3 1170.9 689.5 1165.4 688.9 1161.9C688.4 1158.5 686.6 1153.2 685.0 1150.1C683.4 1147.0 681.6 1141.6 681.0 1138.0C680.4 1134.4 678.6 1128.8 677.0 1125.5C675.5 1122.1 673.7 1115.8 673.0 1111.5C672.3 1107.1 670.5 1100.3 668.9 1096.3C667.3 1092.3 665.6 1086.0 665.0 1082.3C664.4 1078.6 662.6 1072.8 661.1 1069.5C659.5 1066.2 657.7 1060.1 657.0 1056.0C656.4 1051.9 654.5 1045.6 652.9 1042.0C651.2 1038.5 649.6 1033.5 649.3 1031.0C649.0 1028.5 647.5 1023.6 646.0 1020.0C644.4 1016.4 642.3 1010.1 641.2 1005.9C640.1 1001.7 638.2 996.3 636.9 993.9C635.7 991.5 633.9 986.4 632.9 982.7C632.0 978.9 630.0 974.1 628.6 972.0C627.3 969.9 625.5 965.7 624.7 962.7C623.9 959.6 622.3 955.9 621.2 954.3C620.2 952.8 618.5 948.8 617.5 945.5C616.6 942.2 614.5 937.5 613.0 935.1C611.4 932.8 609.3 928.5 608.4 925.6C607.5 922.8 606.0 919.4 605.0 918.0C604.1 916.6 600.9 910.3 597.8 904.0C594.8 897.6 590.7 890.0 588.7 887.1C586.6 884.2 585.0 881.3 585.0 880.6C585.0 880.0 583.2 876.9 581.0 873.6C578.8 870.4 577.0 867.3 577.0 866.7C577.0 866.2 575.5 863.9 573.6 861.6C571.8 859.3 569.3 855.6 568.2 853.3C567.0 851.0 565.6 848.9 565.1 848.5C564.5 848.2 561.5 844.0 558.4 839.2C555.3 834.4 550.9 828.5 548.6 826.0C546.3 823.5 541.9 818.3 538.7 814.3C530.5 804.0 513.2 786.9 497.0 773.3C486.5 764.5 459.7 746.2 453.4 743.5C451.3 742.6 448.1 740.8 446.3 739.4C444.5 738.1 441.1 736.3 438.8 735.4C436.5 734.6 432.5 732.7 430.0 731.1C427.5 729.5 423.9 727.9 422.0 727.5C420.1 727.1 415.8 725.3 412.5 723.4C408.8 721.4 403.8 719.7 399.5 719.0C395.5 718.3 390.3 716.5 387.3 714.9C383.5 712.7 379.9 711.7 373.3 710.9C368.5 710.3 362.0 708.9 359.0 707.9C350.9 705.0 346.8 704.2 333.5 703.1C321.0 702.0 277.2 699.0 273.2 699.0C271.9 699.0 269.6 697.7 268.0 696.2C265.3 693.4 265.2 693.4 265.4 680.6C265.6 662.7 264.3 663.5 291.6 662.7C320.8 661.8 340.9 660.2 352.0 658.0C357.2 656.9 365.6 655.6 370.6 655.0C375.6 654.5 382.1 653.2 385.1 652.2C391.0 650.2 402.7 647.7 413.1 646.2C417.2 645.6 421.2 644.3 423.6 642.7C425.7 641.3 429.5 639.6 432.0 639.0C434.5 638.3 439.2 636.3 442.5 634.5C445.8 632.6 450.3 630.8 452.5 630.5C454.7 630.1 459.2 628.3 462.5 626.5C465.8 624.7 469.7 623.0 471.1 622.6C472.6 622.3 475.7 620.4 478.0 618.5C480.3 616.6 482.6 615.0 483.0 615.0C483.5 615.0 486.0 613.2 488.5 611.0C491.0 608.8 493.5 607.0 493.9 607.0C494.6 607.0 496.8 605.4 510.9 594.8C518.6 589.0 530.8 575.5 543.8 558.2C546.2 555.1 549.2 551.4 550.5 550.0C553.0 547.2 562.0 530.6 562.0 528.7C562.0 528.0 563.3 525.3 564.9 522.8C566.5 520.3 568.1 517.2 568.5 515.9C568.9 514.6 570.7 511.0 572.5 508.0C574.6 504.6 576.5 499.4 577.6 494.5C578.5 490.1 580.3 484.0 581.5 481.0C582.8 477.9 584.4 471.6 585.0 467.0C585.7 462.0 587.4 455.7 589.1 451.8C591.9 445.4 592.1 444.0 593.0 424.8C594.1 401.6 595.8 376.6 596.6 373.2C596.8 372.0 596.4 362.5 595.5 352.2C594.6 341.9 593.6 325.4 593.1 315.5C592.3 299.8 591.9 296.6 589.6 290.7C588.2 286.9 586.1 278.2 585.0 271.4C583.8 264.5 582.1 256.7 581.0 254.0C579.9 251.3 578.4 246.1 577.5 242.5C576.6 238.6 574.6 234.0 572.5 230.9C570.6 228.1 569.0 225.1 569.0 224.2C569.0 221.3 555.1 194.3 551.1 189.4C538.3 173.8 533.7 168.0 530.6 163.5C527.1 158.3 523.5 154.9 513.5 147.0C510.4 144.5 505.6 140.6 502.8 138.2C500.1 135.9 497.5 134.0 496.9 134.0C496.4 134.0 494.1 132.3 491.7 130.2C485.8 124.8 478.1 120.2 472.3 118.5C469.6 117.7 466.5 116.1 465.5 115.0C464.5 113.9 461.1 112.2 458.1 111.4C455.0 110.5 450.9 108.8 448.9 107.5C446.9 106.2 442.7 104.4 439.5 103.5C436.4 102.5 431.0 100.5 427.6 98.9C423.4 97.0 418.5 95.7 412.0 94.9C406.8 94.3 400.9 93.2 399.0 92.5C392.1 89.8 382.3 87.9 368.5 86.4C311.5 80.3 302.0 79.9 233.6 80.2L171.7 80.5L169.9 83.0C168.0 85.4 168.0 103.2 168.0 745.5C167.9 1108.5 167.6 1408.4 167.1 1411.9C166.6 1416.3 165.8 1418.7 164.5 1419.6C162.9 1420.8 151.5 1421.0 99.1 1420.8L35.5 1420.5L34.3 1417.9C32.4 1413.9 32.4 37.6 34.3 34.7C35.6 32.7 37.3 32.7 181.5 32.9C334.6 33.0 333.9 33.0 362.5 36.0C372.4 37.0 388.1 38.4 397.5 39.0C406.9 39.7 417.9 41.0 422.0 42.0C429.4 43.8 447.8 47.2 457.5 48.5C460.2 48.9 464.0 50.0 466.0 51.0C467.9 52.0 474.2 53.5 480.0 54.4C487.0 55.5 492.6 57.1 496.8 59.1C500.3 60.8 505.9 62.6 509.3 63.1C512.7 63.6 518.7 65.6 522.6 67.4C526.6 69.3 531.3 71.1 533.1 71.5C535.0 71.9 538.8 73.5 541.5 75.0C544.2 76.6 548.4 78.3 550.6 78.9C552.9 79.5 556.4 81.2 558.5 82.6C560.6 84.0 564.7 86.0 567.6 87.1C570.5 88.2 573.9 89.9 575.2 91.0C576.6 92.0 580.1 94.0 583.1 95.5C593.4 100.4 598.8 103.6 602.8 107.2C605.0 109.2 607.8 111.1 609.1 111.5C610.4 111.9 613.2 113.7 615.2 115.4C617.2 117.1 621.5 120.3 624.6 122.5C636.3 130.6 655.9 148.7 666.1 161.0C670.5 166.2 675.3 172.1 677.0 174.0C680.5 178.2 685.7 185.0 688.7 189.3C689.9 191.1 691.8 193.7 692.9 195.1C694.0 196.6 695.9 200.2 697.0 203.3C698.1 206.3 699.8 209.4 700.7 210.2C701.6 210.9 703.4 213.9 704.7 216.9C706.1 219.9 708.2 223.7 709.5 225.2C710.9 226.8 712.4 230.0 713.0 232.3C713.6 234.6 715.4 239.4 716.9 243.0C718.5 246.6 721.0 253.6 722.5 258.5C724.0 263.4 725.9 268.7 726.6 270.2C727.4 271.6 728.7 277.3 729.5 282.7C730.4 288.1 732.2 296.0 733.5 300.2C735.6 306.7 736.2 312.0 737.6 336.2C740.2 382.7 738.2 419.3 731.5 443.5C730.7 446.2 729.6 451.5 729.0 455.1C728.5 458.8 726.9 464.3 725.5 467.5C724.1 470.6 722.1 477.0 721.0 481.5C719.9 486.2 717.8 491.9 716.1 494.4C714.5 497.0 712.9 501.1 712.5 503.6C712.1 506.4 710.8 509.3 708.9 511.4C707.3 513.3 705.3 516.7 704.5 519.1C703.6 521.5 702.1 524.4 701.1 525.5C700.1 526.6 698.0 529.8 696.6 532.5C695.1 535.2 691.9 540.2 689.4 543.5C687.0 546.8 683.4 551.9 681.5 554.8C679.6 557.6 677.6 560.0 677.2 560.0C676.7 560.0 674.8 562.1 673.0 564.8C667.9 571.9 657.0 583.0 642.0 596.1C622.3 613.4 620.4 615.0 619.5 615.0C619.0 615.0 616.4 616.7 613.6 618.9C610.8 621.0 607.4 623.3 606.0 624.0C604.6 624.7 602.5 626.2 601.2 627.3C598.5 629.8 591.2 634.2 585.0 637.0C582.5 638.1 577.4 640.6 573.5 642.4C555.9 651.0 547.2 654.9 543.5 656.1C541.3 656.7 537.3 658.4 534.7 659.7C532.1 661.0 527.3 662.5 524.2 663.1C521.1 663.7 515.7 665.5 512.3 667.1C508.7 668.9 502.5 670.7 497.7 671.5C493.0 672.2 486.4 674.1 483.0 675.5C479.2 677.1 473.5 678.5 468.6 679.0C459.7 679.9 458.0 681.1 458.0 686.7C458.0 690.9 460.8 693.7 465.7 694.5C475.3 696.1 479.4 697.1 483.3 699.1C485.6 700.3 491.5 701.9 496.3 702.6C502.9 703.6 506.4 704.7 509.9 706.9C512.4 708.5 517.2 710.3 520.5 711.0C523.8 711.6 528.2 713.2 530.2 714.6C532.2 715.9 536.9 717.7 540.5 718.6C544.1 719.5 548.6 721.2 550.3 722.4C554.6 725.3 569.6 733.3 574.0 735.0C575.9 735.8 579.1 737.6 581.0 739.2C582.9 740.7 586.1 742.6 588.1 743.4C590.0 744.2 592.3 745.6 593.0 746.5C593.8 747.4 596.0 749.0 598.0 750.0C600.0 751.0 603.5 753.4 605.8 755.2C608.1 757.0 612.5 760.3 615.7 762.5C632.1 774.0 659.3 800.6 677.5 823.0C680.2 826.3 684.7 831.4 687.3 834.3C691.6 838.9 695.1 843.5 703.5 856.0C704.8 857.9 707.0 860.9 708.3 862.5C709.6 864.1 711.9 867.8 713.3 870.6C714.7 873.3 716.6 876.2 717.5 877.0C718.4 877.8 720.3 880.7 721.7 883.4C723.1 886.2 725.1 889.4 726.1 890.5C727.1 891.6 728.6 894.4 729.4 896.7C730.2 898.9 732.2 902.7 733.9 905.0C735.6 907.4 737.0 909.8 737.0 910.4C737.0 911.0 738.5 913.8 740.3 916.5C742.1 919.3 744.4 923.4 745.3 925.6C746.1 927.9 748.0 931.4 749.4 933.4C750.8 935.4 752.4 938.8 753.1 940.8C753.7 942.8 755.5 946.5 757.0 949.0C758.5 951.5 760.5 956.0 761.4 959.1C762.2 962.2 763.9 965.9 765.1 967.4C766.3 968.9 768.1 972.8 769.1 976.1C770.1 979.4 772.1 984.1 773.6 986.5C775.0 989.0 776.8 993.9 777.5 997.5C778.3 1001.0 780.0 1005.9 781.4 1008.3C782.9 1010.7 784.5 1015.4 785.1 1018.6C785.7 1021.8 787.0 1025.9 787.9 1027.6C790.0 1031.2 792.6 1038.8 793.5 1044.4C793.9 1046.6 795.3 1050.6 796.6 1053.3C798.0 1056.0 799.8 1061.4 800.5 1065.3C802.2 1073.9 803.2 1077.1 805.8 1083.0C806.9 1085.5 808.3 1090.4 809.0 1094.0C809.6 1097.6 811.4 1103.4 813.0 1107.0C814.6 1110.6 816.4 1116.4 817.0 1119.9C817.6 1123.5 819.4 1128.9 820.9 1131.9C822.5 1135.0 824.2 1140.4 824.8 1143.9C825.4 1147.4 827.1 1152.2 828.5 1154.5C829.9 1156.9 831.7 1161.9 832.6 1165.7C833.4 1169.4 835.5 1174.8 837.1 1177.6C838.7 1180.5 840.5 1185.4 841.1 1188.5C841.7 1191.7 843.7 1197.2 845.6 1200.7C847.5 1204.3 849.0 1208.1 849.0 1209.1C849.0 1211.5 851.3 1216.2 853.3 1217.9C854.2 1218.5 855.4 1221.4 856.0 1224.3C856.7 1227.2 858.7 1232.4 860.6 1236.0C862.4 1239.6 866.6 1248.2 870.0 1255.2C873.4 1262.2 876.5 1268.2 876.9 1268.5C877.4 1268.7 878.8 1271.6 880.1 1274.7C881.3 1277.9 883.5 1281.8 884.8 1283.5C886.2 1285.1 888.1 1288.3 889.1 1290.5C890.1 1292.7 893.4 1297.9 896.4 1302.0C899.5 1306.1 903.5 1311.8 905.5 1314.5C917.4 1331.1 919.0 1333.0 932.0 1345.4C933.4 1346.7 935.6 1348.9 936.9 1350.4C939.4 1353.3 944.0 1353.9 945.9 1351.6C946.7 1350.6 947.0 1182.5 947.0 694.2L947.0 38.1L949.2 35.5L951.5 33.0L1250.4 32.9C1521.7 32.9 1549.5 33.1 1550.9 34.5C1552.3 35.9 1552.5 41.3 1552.5 80.4C1552.5 123.2 1552.4 124.9 1550.5 127.0C1548.9 128.8 1547.8 129.1 1544.5 128.6C1542.3 128.3 1534.2 127.6 1526.5 127.0C1518.8 126.4 1509.1 125.3 1505.0 124.5C1487.7 121.2 1479.7 120.0 1465.5 118.9C1457.2 118.3 1445.3 116.7 1439.0 115.4C1432.7 114.0 1417.8 112.1 1406.0 111.0C1394.2 110.0 1381.6 108.5 1378.0 107.6C1365.7 104.8 1354.5 103.0 1348.9 103.0C1341.6 103.0 1323.5 101.2 1319.0 100.0C1311.8 98.1 1291.6 95.0 1286.4 95.0C1278.7 95.0 1262.5 93.1 1256.0 91.5C1247.8 89.4 1231.0 87.2 1218.0 86.6C1211.7 86.2 1202.5 85.1 1197.5 83.9C1186.4 81.4 1169.4 79.4 1153.0 78.5C1146.1 78.2 1132.2 76.7 1122.0 75.2C1103.4 72.5 1088.6 72.1 1085.0 74.0C1083.9 74.6 1082.8 76.5 1082.5 78.3C1082.2 80.0 1082.1 214.8 1082.2 377.7C1082.5 660.6 1082.6 674.0 1084.3 675.7C1086.4 677.8 1107.8 677.9 1129.4 675.9C1151.4 673.9 1163.2 673.2 1188.0 672.1C1244.9 669.6 1258.9 668.9 1265.7 668.0C1277.9 666.4 1316.3 664.0 1344.5 663.0C1370.4 662.1 1386.3 661.0 1403.5 659.1C1412.9 658.0 1511.0 652.7 1522.9 652.7C1530.1 652.6 1530.0 652.0 1530.0 698.5C1530.0 735.7 1529.8 739.9 1528.3 741.1C1525.6 743.4 1510.8 742.7 1466.0 738.5C1445.8 736.6 1421.6 735.2 1395.5 734.5C1374.1 733.9 1361.4 733.1 1336.3 730.4C1322.6 729.0 1298.7 727.7 1260.0 726.5C1249.8 726.2 1237.5 725.5 1232.5 725.0C1179.4 719.5 1089.5 716.1 1084.6 719.4L1082.0 721.0L1082.0 1048.3C1082.1 1315.1 1082.3 1375.8 1083.4 1377.2C1086.5 1381.3 1098.2 1381.4 1129.5 1377.5C1136.1 1376.7 1148.7 1375.5 1157.5 1375.0C1175.6 1373.9 1177.9 1373.6 1190.5 1371.0C1195.5 1370.0 1204.9 1368.7 1211.5 1368.1C1237.5 1365.8 1245.8 1364.7 1253.0 1362.9C1257.1 1361.9 1265.9 1360.5 1272.5 1359.9C1293.3 1358.1 1311.3 1355.9 1317.7 1354.4C1321.1 1353.6 1331.5 1352.3 1340.7 1351.5C1359.6 1349.9 1369.5 1348.5 1379.0 1346.3C1382.6 1345.5 1395.2 1344.0 1407.0 1342.9C1428.9 1340.9 1433.6 1340.3 1445.0 1337.6C1448.6 1336.8 1458.7 1335.6 1467.5 1335.0C1476.3 1334.4 1490.5 1332.6 1499.0 1331.0C1507.5 1329.4 1518.1 1327.8 1522.5 1327.5C1526.9 1327.2 1535.1 1326.4 1540.6 1325.8C1553.2 1324.5 1555.7 1325.0 1557.6 1329.5C1559.7 1334.5 1559.7 1409.4 1557.6 1414.5C1554.9 1421.0 1574.9 1420.4 1302.0 1421.2C1164.8 1421.6 1033.8 1422.1 1011.0 1422.3C988.2 1422.5 964.5 1422.4 958.5 1422.0ZM772.5 783.9C757.6 781.9 753.4 780.3 736.5 770.1C724.9 763.2 709.8 747.5 704.4 736.8C702.9 733.9 700.9 730.4 699.9 729.1C697.2 725.7 691.1 705.9 689.8 696.5C687.9 682.6 689.3 663.9 692.8 655.0C694.4 650.9 696.1 645.5 696.5 643.0C697.3 637.8 699.1 634.0 701.6 631.9C702.5 631.2 704.1 628.6 705.1 626.2C707.5 620.7 721.3 605.8 728.8 600.6C731.9 598.5 735.8 595.7 737.3 594.4C738.8 593.1 741.9 591.6 744.2 591.0C746.4 590.4 750.8 588.5 753.9 586.9C769.7 578.8 816.4 579.1 833.5 587.4C837.4 589.3 842.2 591.2 844.3 591.6C848.5 592.3 866.3 607.5 871.6 614.8C873.2 616.8 875.6 619.9 877.1 621.5C878.7 623.2 880.6 626.5 881.4 628.8C882.3 631.2 884.1 634.5 885.5 636.2C886.9 637.8 888.3 640.4 888.6 641.8C888.9 643.3 890.5 649.2 892.1 655.0C897.3 674.0 897.1 697.2 891.5 709.1C890.1 712.3 889.0 716.3 889.0 719.0C888.9 724.9 883.6 735.6 876.0 744.9C871.6 750.4 854.9 767.0 853.8 767.0C853.4 767.0 851.3 768.5 849.2 770.4C847.2 772.3 843.5 774.3 841.0 775.0C838.5 775.6 834.7 777.2 832.5 778.5C827.0 781.7 822.7 782.7 806.1 784.4C789.4 786.3 790.7 786.3 772.5 783.9Z"/></svg>